<svg xmlns="http://www.w3.org/2000/svg" version="1.1" xmlns:xlink="http://www.w3.org/1999/xlink" xmlns:svgjs="http://svgjs.dev/svgjs" width="1000" height="1000" viewBox="0 0 1000 1000"><rect width="1000" height="1000" fill="#ffffff"></rect><g transform="matrix(0.7,0,0,0.7,149.5757669338169,456.2608020996932)"><svg viewBox="0 0 396 50" data-background-color="#ffffff" preserveAspectRatio="xMidYMid meet" height="126" width="1000" xmlns="http://www.w3.org/2000/svg" xmlns:xlink="http://www.w3.org/1999/xlink"><g id="tight-bounds" transform="matrix(1,0,0,1,0.239994706012169,-0.2045363376945204)"><svg viewBox="0 0 395.52 50.40907267538906" height="50.40907267538906" width="395.52"><g><svg viewBox="0 0 478.97338394376754 61.0452167293649" height="50.40907267538906" width="395.52"><g><rect width="5.477731983400788" height="61.0452167293649" x="63.636039438375185" y="0" fill="#000000" opacity="1" stroke-width="0" stroke="transparent" fill-opacity="1" class="rect-o-0" data-fill-palette-color="primary" rx="1%" id="o-0" data-palette-color="#333333"></rect></g><g transform="matrix(1,0,0,1,83.45338394376758,0.15185377295861713)"><svg viewBox="0 0 395.52 60.74150918344767" height="60.74150918344767" width="395.52"><g id="textblocktransform"><svg viewBox="0 0 395.52 60.74150918344767" height="60.74150918344767" width="395.52" id="textblock"><g><svg viewBox="0 0 395.52 60.74150918344767" height="60.74150918344767" width="395.52"><g transform="matrix(1,0,0,1,0,0)"><svg width="395.52" viewBox="3.25 -34.29999923706055 225.92999267578125 34.70000076293945" height="60.74150918344767" data-palette-color="#333333"><path d="M17.8 0L17.8 0 3.25 0 3.25-33.7 16.35-33.7Q21.9-33.7 24.8-31.08 27.7-28.45 27.7-24.4L27.7-24.4Q27.7-21.75 26.3-19.75 24.9-17.75 22.65-17.05L22.65-17.05Q28.5-15.3 28.5-9.15L28.5-9.15Q28.5-5.15 25.63-2.58 22.75 0 17.8 0ZM15.05-27.55L15.05-27.55 10.95-27.55 10.95-20 13.8-20Q16.8-20 18.32-21.1 19.85-22.2 19.85-24L19.85-24Q19.85-27.55 15.05-27.55ZM15.05-13.95L15.05-13.95 10.95-13.95 10.95-6.15 15-6.15Q20.7-6.15 20.7-10.05 20.7-13.95 15.05-13.95ZM53.65-6.75L53.65 0 33.5 0 33.5-33.7 41.2-33.7 41.2-6.75 53.65-6.75ZM89.45-16.95L89.45-16.95Q89.45-9.2 84.97-4.42 80.5 0.35 73.05 0.35L73.05 0.35Q65.55 0.35 61.1-4.4 56.65-9.15 56.65-16.95L56.65-16.95Q56.65-24.7 61.12-29.48 65.59-34.25 73.05-34.25L73.05-34.25Q80.55-34.25 85-29.5 89.45-24.75 89.45-16.95ZM67.09-24.48Q64.9-21.7 64.9-16.95 64.9-12.2 67.09-9.43 69.3-6.65 73.05-6.65 76.8-6.65 79-9.43 81.2-12.2 81.2-16.95 81.2-21.7 79-24.48 76.8-27.25 73.05-27.25 69.3-27.25 67.09-24.48ZM123.74-20.1L123.74-3.1Q118.94 0.4 111.64 0.4L111.64 0.4Q103.54 0.4 98.49-4.25 93.44-8.9 93.44-16.9L93.44-16.9Q93.44-24.8 98.72-29.55 103.99-34.3 112.09-34.3L112.09-34.3Q117.79-34.3 121.94-32.2L121.94-32.2 121.94-24.5Q117.14-27.25 112.09-27.25L112.09-27.25Q107.34-27.25 104.54-24.43 101.74-21.6 101.74-16.9L101.74-16.9Q101.74-12.15 104.49-9.35 107.24-6.55 111.99-6.55L111.99-6.55Q114.14-6.55 116.24-7.2L116.24-7.2 116.24-13.55 110.79-13.55 110.79-20.1 123.74-20.1ZM138.19-33.7L138.19 0 130.49 0 130.49-33.7 138.19-33.7ZM164.09-18.85L164.09-12.7 152.94-12.7 152.94 0 145.19 0 145.19-33.7 165.74-33.7 165.74-27.55 152.94-27.55 152.94-18.85 164.09-18.85ZM187.09-12.4L187.09 0 179.39 0 179.39-12.35 167.89-33.7 176.89-33.7 178.94-28.8Q180.54-25 181.59-22.3 182.64-19.6 182.94-18.8L182.94-18.8 183.19-18Q183.69-20.25 187.59-28.8L187.59-28.8 189.79-33.7 198.74-33.7 187.09-12.4ZM214.13-27.45L214.13-27.45 210.33-27.45 210.33-17.95 213.98-17.95Q218.98-17.95 218.98-22.85L218.98-22.85Q218.98-25 217.68-26.23 216.38-27.45 214.13-27.45ZM210.33-11.7L210.33 0 202.63 0 202.63-33.7 214.28-33.7Q219.93-33.7 223.36-30.7 226.78-27.7 226.78-22.9L226.78-22.9Q226.78-15.7 220.63-12.95L220.63-12.95 229.18 0 219.98 0 212.68-11.7 210.33-11.7Z" opacity="1" transform="matrix(1,0,0,1,0,0)" fill="#000000" class="wordmark-text-0" data-fill-palette-color="primary" id="text-0"></path></svg></g></svg></g></svg></g></svg></g><g transform="matrix(1,0,0,1,0,0.15185377295861713)"><svg viewBox="0 0 49.296426916383595 60.74150918344767" height="60.74150918344767" width="49.296426916383595"><g><svg xmlns="http://www.w3.org/2000/svg" xmlns:xlink="http://www.w3.org/1999/xlink" version="1.1" x="0" y="0" viewBox="0.00042724609375 0 81.15691375732422 99.9990005493164" enable-background="new 0 0 81.157 100" xml:space="preserve" width="49.296426916383595" height="60.74150918344767" class="icon-icon-0" data-fill-palette-color="accent" id="icon-0"><path fill="#000000" d="M67.292 97.443c-0.301-11.429-7.519-12.781-7.067-20.752 0.301-9.774 7.067-14.887 7.067-14.887S50.901 63.309 47.743 83.91c0 0-1.805-17.294-6.466-25.264-4.662-7.368-6.467-5.864-6.467-5.864s4.061 5.112-4.36 18.045c-8.872 13.985-1.354 20.15-1.354 20.15S15.863 88.12 14.059 73.233c0 0-0.301 0.902-0.752 1.654-2.104 4.661-0.15 15.338 0.15 25.112-24.661-15.338-7.97-37.443-7.519-54.888 0.602-23.759-5.714-32.18-5.714-32.18s19.248 16.842 24.06 24.662C23.231 16.542 33.607 6.015 48.194 0c-5.563 8.722-4.512 16.241-3.158 23.458 2.105 11.579 8.421 17.745 8.421 17.745s5.564-5.564 8.121-12.03c4.21-10.827 3.458-15.639 3.458-15.639C74.209 19.85 94.961 78.947 67.292 97.443z" data-fill-palette-color="accent"></path></svg></g></svg></g></svg></g><defs></defs></svg><rect width="395.52" height="50.40907267538906" fill="none" stroke="none" visibility="hidden"></rect></g></svg></g></svg>